<svg xmlns="http://www.w3.org/2000/svg" width="480" height="658" viewBox="0 0 480 658" role="img"><title>Abhijeet Kumar, SDE I at Amazon. Android, backend and web. Delhi Technological University.</title><rect x="0.5" y="0.5" width="479" height="657" rx="16" fill="#181b19" stroke="#354139"/><g font-family="Trebuchet MS, DejaVu Sans, sans-serif"><text x="24" y="33" font-size="11" fill="#ff9955" font-weight="700" letter-spacing="2">AK / FIELD NOTES</text><text x="310" y="33" font-size="11" fill="#b4bcae" font-weight="700" letter-spacing="2">ABHIJEET38</text><path d="M24 48H456" stroke="#354139" stroke-width="1" fill="none" /><text x="21" y="123" font-size="66" fill="#f4eedf" font-weight="700" letter-spacing="-3">Abhijeet</text><text x="21" y="187" font-size="66" fill="#ff9955" font-weight="700" letter-spacing="-3">Kumar.</text><text x="24" y="229" font-size="27" fill="#f4eedf" font-weight="400" font-family="Georgia, DejaVu Serif, serif" font-style="italic">A builder at heart.</text><rect x="24" y="251" width="212" height="32" rx="16" fill="#c9d48f" stroke="none"/><text x="40" y="273" font-size="17" fill="#24372c" font-weight="700" >SDE I @ Amazon</text><g transform="translate(137 284) scale(.78)"><circle cx="10" cy="0" r="0.8" fill="#354139" stroke="none"/><circle cx="10" cy="24" r="0.8" fill="#354139" stroke="none"/><circle cx="10" cy="48" r="0.8" fill="#354139" stroke="none"/><circle cx="10" cy="72" r="0.8" fill="#354139" stroke="none"/><circle cx="10" cy="96" r="0.8" fill="#354139" stroke="none"/><circle cx="10" cy="120" r="0.8" fill="#354139" stroke="none"/><circle cx="10" cy="144" r="0.8" fill="#354139" stroke="none"/><circle cx="10" cy="168" r="0.8" fill="#354139" stroke="none"/><circle cx="10" cy="192" r="0.8" fill="#354139" stroke="none"/><circle cx="10" cy="216" r="0.8" fill="#354139" stroke="none"/><circle cx="10" cy="240" r="0.8" fill="#354139" stroke="none"/><circle cx="10" cy="264" r="0.8" fill="#354139" stroke="none"/><circle cx="10" cy="288" r="0.8" fill="#354139" stroke="none"/><circle cx="10" cy="312" r="0.8" fill="#354139" stroke="none"/><circle cx="10" cy="336" r="0.8" fill="#354139" stroke="none"/><circle cx="10" cy="360" r="0.8" fill="#354139" stroke="none"/><circle cx="34" cy="0" r="0.8" fill="#354139" stroke="none"/><circle cx="34" cy="24" r="0.8" fill="#354139" stroke="none"/><circle cx="34" cy="48" r="0.8" fill="#354139" stroke="none"/><circle cx="34" cy="72" r="0.8" fill="#354139" stroke="none"/><circle cx="34" cy="96" r="0.8" fill="#354139" stroke="none"/><circle cx="34" cy="120" r="0.8" fill="#354139" stroke="none"/><circle cx="34" cy="144" r="0.8" fill="#354139" stroke="none"/><circle cx="34" cy="168" r="0.8" fill="#354139" stroke="none"/><circle cx="34" cy="192" r="0.8" fill="#354139" stroke="none"/><circle cx="34" cy="216" r="0.8" fill="#354139" stroke="none"/><circle cx="34" cy="240" r="0.8" fill="#354139" stroke="none"/><circle cx="34" cy="264" r="0.8" fill="#354139" stroke="none"/><circle cx="34" cy="288" r="0.8" fill="#354139" stroke="none"/><circle cx="34" cy="312" r="0.8" fill="#354139" stroke="none"/><circle cx="34" cy="336" r="0.8" fill="#354139" stroke="none"/><circle cx="34" cy="360" r="0.8" fill="#354139" stroke="none"/><circle cx="58" cy="0" r="0.8" fill="#354139" stroke="none"/><circle cx="58" cy="24" r="0.8" fill="#354139" stroke="none"/><circle cx="58" cy="48" r="0.8" fill="#354139" stroke="none"/><circle cx="58" cy="72" r="0.8" fill="#354139" stroke="none"/><circle cx="58" cy="96" r="0.8" fill="#354139" stroke="none"/><circle cx="58" cy="120" r="0.8" fill="#354139" stroke="none"/><circle cx="58" cy="144" r="0.8" fill="#354139" stroke="none"/><circle cx="58" cy="168" r="0.8" fill="#354139" stroke="none"/><circle cx="58" cy="192" r="0.8" fill="#354139" stroke="none"/><circle cx="58" cy="216" r="0.8" fill="#354139" stroke="none"/><circle cx="58" cy="240" r="0.8" fill="#354139" stroke="none"/><circle cx="58" cy="264" r="0.8" fill="#354139" stroke="none"/><circle cx="58" cy="288" r="0.8" fill="#354139" stroke="none"/><circle cx="58" cy="312" r="0.8" fill="#354139" stroke="none"/><circle cx="58" cy="336" r="0.8" fill="#354139" stroke="none"/><circle cx="58" cy="360" r="0.8" fill="#354139" stroke="none"/><circle cx="82" cy="0" r="0.8" fill="#354139" stroke="none"/><circle cx="82" cy="24" r="0.8" fill="#354139" stroke="none"/><circle cx="82" cy="48" r="0.8" fill="#354139" stroke="none"/><circle cx="82" cy="72" r="0.8" fill="#354139" stroke="none"/><circle cx="82" cy="96" r="0.8" fill="#354139" stroke="none"/><circle cx="82" cy="120" r="0.8" fill="#354139" stroke="none"/><circle cx="82" cy="144" r="0.8" fill="#354139" stroke="none"/><circle cx="82" cy="168" r="0.8" fill="#354139" stroke="none"/><circle cx="82" cy="192" r="0.8" fill="#354139" stroke="none"/><circle cx="82" cy="216" r="0.8" fill="#354139" stroke="none"/><circle cx="82" cy="240" r="0.8" fill="#354139" stroke="none"/><circle cx="82" cy="264" r="0.8" fill="#354139" stroke="none"/><circle cx="82" cy="288" r="0.8" fill="#354139" stroke="none"/><circle cx="82" cy="312" r="0.8" fill="#354139" stroke="none"/><circle cx="82" cy="336" r="0.8" fill="#354139" stroke="none"/><circle cx="82" cy="360" r="0.8" fill="#354139" stroke="none"/><circle cx="106" cy="0" r="0.8" fill="#354139" stroke="none"/><circle cx="106" cy="24" r="0.8" fill="#354139" stroke="none"/><circle cx="106" cy="48" r="0.8" fill="#354139" stroke="none"/><circle cx="106" cy="72" r="0.8" fill="#354139" stroke="none"/><circle cx="106" cy="96" r="0.8" fill="#354139" stroke="none"/><circle cx="106" cy="120" r="0.8" fill="#354139" stroke="none"/><circle cx="106" cy="144" r="0.8" fill="#354139" stroke="none"/><circle cx="106" cy="168" r="0.8" fill="#354139" stroke="none"/><circle cx="106" cy="192" r="0.8" fill="#354139" stroke="none"/><circle cx="106" cy="216" r="0.8" fill="#354139" stroke="none"/><circle cx="106" cy="240" r="0.8" fill="#354139" stroke="none"/><circle cx="106" cy="264" r="0.8" fill="#354139" stroke="none"/><circle cx="106" cy="288" r="0.8" fill="#354139" stroke="none"/><circle cx="106" cy="312" r="0.8" fill="#354139" stroke="none"/><circle cx="106" cy="336" r="0.8" fill="#354139" stroke="none"/><circle cx="106" cy="360" r="0.8" fill="#354139" stroke="none"/><circle cx="130" cy="0" r="0.8" fill="#354139" stroke="none"/><circle cx="130" cy="24" r="0.8" fill="#354139" stroke="none"/><circle cx="130" cy="48" r="0.8" fill="#354139" stroke="none"/><circle cx="130" cy="72" r="0.8" fill="#354139" stroke="none"/><circle cx="130" cy="96" r="0.8" fill="#354139" stroke="none"/><circle cx="130" cy="120" r="0.8" fill="#354139" stroke="none"/><circle cx="130" cy="144" r="0.8" fill="#354139" stroke="none"/><circle cx="130" cy="168" r="0.8" fill="#354139" stroke="none"/><circle cx="130" cy="192" r="0.8" fill="#354139" stroke="none"/><circle cx="130" cy="216" r="0.8" fill="#354139" stroke="none"/><circle cx="130" cy="240" r="0.8" fill="#354139" stroke="none"/><circle cx="130" cy="264" r="0.8" fill="#354139" stroke="none"/><circle cx="130" cy="288" r="0.8" fill="#354139" stroke="none"/><circle cx="130" cy="312" r="0.8" fill="#354139" stroke="none"/><circle cx="130" cy="336" r="0.8" fill="#354139" stroke="none"/><circle cx="130" cy="360" r="0.8" fill="#354139" stroke="none"/><circle cx="154" cy="0" r="0.8" fill="#354139" stroke="none"/><circle cx="154" cy="24" r="0.8" fill="#354139" stroke="none"/><circle cx="154" cy="48" r="0.8" fill="#354139" stroke="none"/><circle cx="154" cy="72" r="0.8" fill="#354139" stroke="none"/><circle cx="154" cy="96" r="0.8" fill="#354139" stroke="none"/><circle cx="154" cy="120" r="0.8" fill="#354139" stroke="none"/><circle cx="154" cy="144" r="0.8" fill="#354139" stroke="none"/><circle cx="154" cy="168" r="0.8" fill="#354139" stroke="none"/><circle cx="154" cy="192" r="0.8" fill="#354139" stroke="none"/><circle cx="154" cy="216" r="0.8" fill="#354139" stroke="none"/><circle cx="154" cy="240" r="0.8" fill="#354139" stroke="none"/><circle cx="154" cy="264" r="0.8" fill="#354139" stroke="none"/><circle cx="154" cy="288" r="0.8" fill="#354139" stroke="none"/><circle cx="154" cy="312" r="0.8" fill="#354139" stroke="none"/><circle cx="154" cy="336" r="0.8" fill="#354139" stroke="none"/><circle cx="154" cy="360" r="0.8" fill="#354139" stroke="none"/><circle cx="178" cy="0" r="0.8" fill="#354139" stroke="none"/><circle cx="178" cy="24" r="0.8" fill="#354139" stroke="none"/><circle cx="178" cy="48" r="0.8" fill="#354139" stroke="none"/><circle cx="178" cy="72" r="0.8" fill="#354139" stroke="none"/><circle cx="178" cy="96" r="0.8" fill="#354139" stroke="none"/><circle cx="178" cy="120" r="0.8" fill="#354139" stroke="none"/><circle cx="178" cy="144" r="0.8" fill="#354139" stroke="none"/><circle cx="178" cy="168" r="0.8" fill="#354139" stroke="none"/><circle cx="178" cy="192" r="0.8" fill="#354139" stroke="none"/><circle cx="178" cy="216" r="0.8" fill="#354139" stroke="none"/><circle cx="178" cy="240" r="0.8" fill="#354139" stroke="none"/><circle cx="178" cy="264" r="0.8" fill="#354139" stroke="none"/><circle cx="178" cy="288" r="0.8" fill="#354139" stroke="none"/><circle cx="178" cy="312" r="0.8" fill="#354139" stroke="none"/><circle cx="178" cy="336" r="0.8" fill="#354139" stroke="none"/><circle cx="178" cy="360" r="0.8" fill="#354139" stroke="none"/><circle cx="202" cy="0" r="0.8" fill="#354139" stroke="none"/><circle cx="202" cy="24" r="0.8" fill="#354139" stroke="none"/><circle cx="202" cy="48" r="0.8" fill="#354139" stroke="none"/><circle cx="202" cy="72" r="0.8" fill="#354139" stroke="none"/><circle cx="202" cy="96" r="0.8" fill="#354139" stroke="none"/><circle cx="202" cy="120" r="0.8" fill="#354139" stroke="none"/><circle cx="202" cy="144" r="0.8" fill="#354139" stroke="none"/><circle cx="202" cy="168" r="0.8" fill="#354139" stroke="none"/><circle cx="202" cy="192" r="0.8" fill="#354139" stroke="none"/><circle cx="202" cy="216" r="0.8" fill="#354139" stroke="none"/><circle cx="202" cy="240" r="0.8" fill="#354139" stroke="none"/><circle cx="202" cy="264" r="0.8" fill="#354139" stroke="none"/><circle cx="202" cy="288" r="0.8" fill="#354139" stroke="none"/><circle cx="202" cy="312" r="0.8" fill="#354139" stroke="none"/><circle cx="202" cy="336" r="0.8" fill="#354139" stroke="none"/><circle cx="202" cy="360" r="0.8" fill="#354139" stroke="none"/><circle cx="226" cy="0" r="0.8" fill="#354139" stroke="none"/><circle cx="226" cy="24" r="0.8" fill="#354139" stroke="none"/><circle cx="226" cy="48" r="0.8" fill="#354139" stroke="none"/><circle cx="226" cy="72" r="0.8" fill="#354139" stroke="none"/><circle cx="226" cy="96" r="0.8" fill="#354139" stroke="none"/><circle cx="226" cy="120" r="0.8" fill="#354139" stroke="none"/><circle cx="226" cy="144" r="0.8" fill="#354139" stroke="none"/><circle cx="226" cy="168" r="0.8" fill="#354139" stroke="none"/><circle cx="226" cy="192" r="0.8" fill="#354139" stroke="none"/><circle cx="226" cy="216" r="0.8" fill="#354139" stroke="none"/><circle cx="226" cy="240" r="0.8" fill="#354139" stroke="none"/><circle cx="226" cy="264" r="0.8" fill="#354139" stroke="none"/><circle cx="226" cy="288" r="0.8" fill="#354139" stroke="none"/><circle cx="226" cy="312" r="0.8" fill="#354139" stroke="none"/><circle cx="226" cy="336" r="0.8" fill="#354139" stroke="none"/><circle cx="226" cy="360" r="0.8" fill="#354139" stroke="none"/><circle cx="250" cy="0" r="0.8" fill="#354139" stroke="none"/><circle cx="250" cy="24" r="0.8" fill="#354139" stroke="none"/><circle cx="250" cy="48" r="0.8" fill="#354139" stroke="none"/><circle cx="250" cy="72" r="0.8" fill="#354139" stroke="none"/><circle cx="250" cy="96" r="0.8" fill="#354139" stroke="none"/><circle cx="250" cy="120" r="0.8" fill="#354139" stroke="none"/><circle cx="250" cy="144" r="0.8" fill="#354139" stroke="none"/><circle cx="250" cy="168" r="0.8" fill="#354139" stroke="none"/><circle cx="250" cy="192" r="0.8" fill="#354139" stroke="none"/><circle cx="250" cy="216" r="0.8" fill="#354139" stroke="none"/><circle cx="250" cy="240" r="0.8" fill="#354139" stroke="none"/><circle cx="250" cy="264" r="0.8" fill="#354139" stroke="none"/><circle cx="250" cy="288" r="0.8" fill="#354139" stroke="none"/><circle cx="250" cy="312" r="0.8" fill="#354139" stroke="none"/><circle cx="250" cy="336" r="0.8" fill="#354139" stroke="none"/><circle cx="250" cy="360" r="0.8" fill="#354139" stroke="none"/><circle cx="274" cy="0" r="0.8" fill="#354139" stroke="none"/><circle cx="274" cy="24" r="0.8" fill="#354139" stroke="none"/><circle cx="274" cy="48" r="0.8" fill="#354139" stroke="none"/><circle cx="274" cy="72" r="0.8" fill="#354139" stroke="none"/><circle cx="274" cy="96" r="0.8" fill="#354139" stroke="none"/><circle cx="274" cy="120" r="0.8" fill="#354139" stroke="none"/><circle cx="274" cy="144" r="0.8" fill="#354139" stroke="none"/><circle cx="274" cy="168" r="0.8" fill="#354139" stroke="none"/><circle cx="274" cy="192" r="0.8" fill="#354139" stroke="none"/><circle cx="274" cy="216" r="0.8" fill="#354139" stroke="none"/><circle cx="274" cy="240" r="0.8" fill="#354139" stroke="none"/><circle cx="274" cy="264" r="0.8" fill="#354139" stroke="none"/><circle cx="274" cy="288" r="0.8" fill="#354139" stroke="none"/><circle cx="274" cy="312" r="0.8" fill="#354139" stroke="none"/><circle cx="274" cy="336" r="0.8" fill="#354139" stroke="none"/><circle cx="274" cy="360" r="0.8" fill="#354139" stroke="none"/><circle cx="298" cy="0" r="0.8" fill="#354139" stroke="none"/><circle cx="298" cy="24" r="0.8" fill="#354139" stroke="none"/><circle cx="298" cy="48" r="0.8" fill="#354139" stroke="none"/><circle cx="298" cy="72" r="0.8" fill="#354139" stroke="none"/><circle cx="298" cy="96" r="0.8" fill="#354139" stroke="none"/><circle cx="298" cy="120" r="0.8" fill="#354139" stroke="none"/><circle cx="298" cy="144" r="0.8" fill="#354139" stroke="none"/><circle cx="298" cy="168" r="0.8" fill="#354139" stroke="none"/><circle cx="298" cy="192" r="0.8" fill="#354139" stroke="none"/><circle cx="298" cy="216" r="0.8" fill="#354139" stroke="none"/><circle cx="298" cy="240" r="0.8" fill="#354139" stroke="none"/><circle cx="298" cy="264" r="0.8" fill="#354139" stroke="none"/><circle cx="298" cy="288" r="0.8" fill="#354139" stroke="none"/><circle cx="298" cy="312" r="0.8" fill="#354139" stroke="none"/><circle cx="298" cy="336" r="0.8" fill="#354139" stroke="none"/><circle cx="298" cy="360" r="0.8" fill="#354139" stroke="none"/><circle cx="322" cy="0" r="0.8" fill="#354139" stroke="none"/><circle cx="322" cy="24" r="0.8" fill="#354139" stroke="none"/><circle cx="322" cy="48" r="0.8" fill="#354139" stroke="none"/><circle cx="322" cy="72" r="0.8" fill="#354139" stroke="none"/><circle cx="322" cy="96" r="0.8" fill="#354139" stroke="none"/><circle cx="322" cy="120" r="0.8" fill="#354139" stroke="none"/><circle cx="322" cy="144" r="0.8" fill="#354139" stroke="none"/><circle cx="322" cy="168" r="0.8" fill="#354139" stroke="none"/><circle cx="322" cy="192" r="0.8" fill="#354139" stroke="none"/><circle cx="322" cy="216" r="0.8" fill="#354139" stroke="none"/><circle cx="322" cy="240" r="0.8" fill="#354139" stroke="none"/><circle cx="322" cy="264" r="0.8" fill="#354139" stroke="none"/><circle cx="322" cy="288" r="0.8" fill="#354139" stroke="none"/><circle cx="322" cy="312" r="0.8" fill="#354139" stroke="none"/><circle cx="322" cy="336" r="0.8" fill="#354139" stroke="none"/><circle cx="322" cy="360" r="0.8" fill="#354139" stroke="none"/><circle cx="346" cy="0" r="0.8" fill="#354139" stroke="none"/><circle cx="346" cy="24" r="0.8" fill="#354139" stroke="none"/><circle cx="346" cy="48" r="0.8" fill="#354139" stroke="none"/><circle cx="346" cy="72" r="0.8" fill="#354139" stroke="none"/><circle cx="346" cy="96" r="0.8" fill="#354139" stroke="none"/><circle cx="346" cy="120" r="0.8" fill="#354139" stroke="none"/><circle cx="346" cy="144" r="0.8" fill="#354139" stroke="none"/><circle cx="346" cy="168" r="0.8" fill="#354139" stroke="none"/><circle cx="346" cy="192" r="0.8" fill="#354139" stroke="none"/><circle cx="346" cy="216" r="0.8" fill="#354139" stroke="none"/><circle cx="346" cy="240" r="0.8" fill="#354139" stroke="none"/><circle cx="346" cy="264" r="0.8" fill="#354139" stroke="none"/><circle cx="346" cy="288" r="0.8" fill="#354139" stroke="none"/><circle cx="346" cy="312" r="0.8" fill="#354139" stroke="none"/><circle cx="346" cy="336" r="0.8" fill="#354139" stroke="none"/><circle cx="346" cy="360" r="0.8" fill="#354139" stroke="none"/><circle cx="370" cy="0" r="0.8" fill="#354139" stroke="none"/><circle cx="370" cy="24" r="0.8" fill="#354139" stroke="none"/><circle cx="370" cy="48" r="0.8" fill="#354139" stroke="none"/><circle cx="370" cy="72" r="0.8" fill="#354139" stroke="none"/><circle cx="370" cy="96" r="0.8" fill="#354139" stroke="none"/><circle cx="370" cy="120" r="0.8" fill="#354139" stroke="none"/><circle cx="370" cy="144" r="0.8" fill="#354139" stroke="none"/><circle cx="370" cy="168" r="0.8" fill="#354139" stroke="none"/><circle cx="370" cy="192" r="0.8" fill="#354139" stroke="none"/><circle cx="370" cy="216" r="0.8" fill="#354139" stroke="none"/><circle cx="370" cy="240" r="0.8" fill="#354139" stroke="none"/><circle cx="370" cy="264" r="0.8" fill="#354139" stroke="none"/><circle cx="370" cy="288" r="0.8" fill="#354139" stroke="none"/><circle cx="370" cy="312" r="0.8" fill="#354139" stroke="none"/><circle cx="370" cy="336" r="0.8" fill="#354139" stroke="none"/><circle cx="370" cy="360" r="0.8" fill="#354139" stroke="none"/><circle cx="394" cy="0" r="0.8" fill="#354139" stroke="none"/><circle cx="394" cy="24" r="0.8" fill="#354139" stroke="none"/><circle cx="394" cy="48" r="0.8" fill="#354139" stroke="none"/><circle cx="394" cy="72" r="0.8" fill="#354139" stroke="none"/><circle cx="394" cy="96" r="0.8" fill="#354139" stroke="none"/><circle cx="394" cy="120" r="0.8" fill="#354139" stroke="none"/><circle cx="394" cy="144" r="0.8" fill="#354139" stroke="none"/><circle cx="394" cy="168" r="0.8" fill="#354139" stroke="none"/><circle cx="394" cy="192" r="0.8" fill="#354139" stroke="none"/><circle cx="394" cy="216" r="0.8" fill="#354139" stroke="none"/><circle cx="394" cy="240" r="0.8" fill="#354139" stroke="none"/><circle cx="394" cy="264" r="0.8" fill="#354139" stroke="none"/><circle cx="394" cy="288" r="0.8" fill="#354139" stroke="none"/><circle cx="394" cy="312" r="0.8" fill="#354139" stroke="none"/><circle cx="394" cy="336" r="0.8" fill="#354139" stroke="none"/><circle cx="394" cy="360" r="0.8" fill="#354139" stroke="none"/><ellipse cx="204" cy="195" rx="185" ry="135" fill="none" stroke="#354139" stroke-dasharray="3 7"/><g transform="translate(38 40) rotate(-7 160 110)"><rect x="20" y="18" width="295" height="202" rx="12" fill="none" stroke="#354139"/><rect x="0" y="0" width="295" height="202" rx="12" fill="#222b25" stroke="#647661"/><path d="M0 29H295" stroke="#647661" stroke-width="1" fill="none" /><circle cx="16" cy="15" r="3" fill="#ff9955" stroke="none"/><circle cx="29" cy="15" r="3" fill="#c9d48f" stroke="none"/><circle cx="42" cy="15" r="3" fill="#83ada4" stroke="none"/><text x="149" y="19" font-size="11" fill="#b4bcae" font-weight="700" letter-spacing="2">BUILD / 038</text><rect x="17" y="47" width="74" height="135" rx="6" fill="#2e3c30" stroke="none"/><text x="28" y="76" font-size="25" fill="#c9d48f" font-weight="700" >AK</text><path d="M29 95H76 M29 108H66 M29 121H70" stroke="#647661" stroke-width="3" fill="none" /><text x="110" y="80" font-size="18" fill="#f4eedf" font-weight="700" >idea.toReality()</text><path d="M111 103h140" stroke="#ff9955" stroke-width="5" fill="none" stroke-linecap="round"/><path d="M111 119h94" stroke="#b4bcae" stroke-width="5" fill="none" stroke-linecap="round"/><path d="M111 135h117" stroke="#b4bcae" stroke-width="5" fill="none" stroke-linecap="round"/><rect x="110" y="156" width="108" height="23" rx="4" fill="#c9d48f" stroke="none"/><text x="121" y="172" font-size="11" fill="#24372c" font-weight="700" >made to work</text></g><g transform="translate(213 149) rotate(11 70 105)"><rect x="9" y="10" width="140" height="209" rx="19" fill="#0f1411" stroke="#354139"/><rect x="0" y="0" width="140" height="209" rx="19" fill="#ff9955" stroke="none"/><rect x="7" y="7" width="126" height="195" rx="14" fill="#181b19" stroke="none"/><rect x="49" y="16" width="43" height="5" rx="3" fill="#52604d" stroke="none"/><text x="22" y="52" font-size="11" fill="#c9d48f" font-weight="700" letter-spacing="2">ANDROID</text><path d="M38 83L23 98L38 113 M103 83L118 98L103 113 M81 75L61 123" stroke="#ff9955" stroke-width="5" fill="none" /><rect x="20" y="143" width="100" height="37" rx="7" fill="#ff9955" stroke="none"/><text x="36" y="166" font-size="15" fill="#181b19" font-weight="700" >RUN IT</text></g><path d="M30 276H85V324H171" stroke="#c9d48f" stroke-width="2" fill="none" /><circle cx="30" cy="276" r="5" fill="#181b19" stroke="#c9d48f"/><circle cx="171" cy="324" r="5" fill="#c9d48f" stroke="none"/><style>@keyframes trace{from{stroke-dashoffset:190}to{stroke-dashoffset:0}}.trace{stroke-dasharray:190;animation:trace 3s ease-out 1}@media(prefers-reduced-motion:reduce){.trace{animation:none}}</style><path d="M30 276H85V324H171" stroke="#ff9955" stroke-width="3" fill="none" class="trace"/><text x="7" y="354" font-size="11" fill="#b4bcae" font-weight="700" letter-spacing="2">FIG. 01 / IDEA → INTERFACE</text><path d="M374 48v20m-10-10h20" stroke="#ff9955" stroke-width="2" fill="none" /></g><text x="24" y="590" font-size="11" fill="#ff9955" font-weight="700" letter-spacing="2">ANDROID / BACKEND / WEB</text><path d="M24 609H456" stroke="#354139" stroke-width="1" fill="none" /><text x="24" y="637" font-size="15" fill="#b4bcae" font-weight="400" >Delhi Technological University</text></g></svg>